<svg version="1.1" xmlns="http://www.w3.org/2000/svg" xmlns:xlink="http://www.w3.org/1999/xlink" width="140" height="52">
  <text font-family="Calibri, sans-seriff" fill="fuchsia" x="30" y="5" font-size="3">Key reserved space - 19.05x19.05mm</text>
  <line x1="40" y1="6" x2="40" y2="10.0" stroke-width="1" stroke="fuchsia"/>
  <line x1="59" y1="6" x2="59" y2="10.0" stroke-width="1" stroke="fuchsia"/>
  
  <g transform="translate(30, 10)">
    <rect width="38.1" stroke-width="0.2" stroke="fuchsia" fill="transparent" height="19.05" x="0" y="0" />
    <line x1="19.05" y1="0" x2="19.05" y2="19.05" stroke-width="0.2" stroke="fuchsia"/>
	
    
    <g>
      <rect width="18" height="18" x="0.525" y="0.525" fill="red" />
      <rect width="14" height="14" x="2.525" y="2.525" fill="#ccc" />
    </g>

    <g transform="translate(19.05, 0)">
      <rect width="18" height="18" x="0.525" y="0.525" fill="red" />
      <rect width="14" height="14" x="2.525" y="2.525" fill="#ccc" />
    </g>
  </g>

  <g transform="translate(5, 10)">
    <text font-family="Calibri, sans-seriff" fill="red" x="0" y="0" width="3" font-size="3">
      <tspan x="0" y="5"> Keycap</tspan> 
      <tspan x="0" y="8">~18x18mm</tspan>
    </text>
    <line x1="18" y1="9" x2="26" y2="9" stroke-width="1" stroke="red"/>
  </g>
  
  <g transform="translate(30, 26)">
    <text font-family="Calibri, sans-seriff" fill="#ccc" x="0" y="0" width="3" font-size="3">
      <tspan x="0" y="20">Switch cutout</tspan> 
      <tspan x="0" y="23">14x14mm for Cherry</tspan>
      <tspan x="0" y="126">(14x14mm for Alps)</tspan>
    </text>
    <line x1="9.5" y1="0" x2="9.5" y2="17" stroke-width="1" stroke="#ccc"/>
  </g>

  
  <g transform="translate(46.55, 26.4)">
    <text font-family="Calibri, sans-seriff" fill="lime" x="0" y="0" width="3" font-size="3">
      <tspan x="0" y="11">Space between Cherry switches</tspan> 
      <tspan x="0" y="14">5.05mm (2 x 2.525mm)</tspan>
    </text>
    <line x1="2.525" y1="0" x2="2.525" y2="8" stroke-width="0.3" stroke="lime"/>
    <line stroke-dasharray="0.4" x1="0" y1="0" x2="5.05" y2="0" stroke-width="0.3" stroke="lime"/>
  </g>
  
  <g transform="translate(65.5, 10)">
    <rect fill="fuchsia" width="60" height="8" x="7" y="0" />
    <rect fill="#ccc" width="52" height="8" x="7" y="11." />
    <text fill="#fff" x="31" y="-1.5" width="3" font-size="3">
      Pad from:
    </text>
    <text font-family="Calibri, sans-seriff" fill="#fff" x="9" y="3" font-size="3">"Reserved" starts at 9.525mm (½ of 19.05mm)</text>
	<text font-family="Calibri, sans-seriff" fill="#fff" x="9" y="6.5" font-size="3">from the center of (a 1u) switch</text>
	<text font-family="Calibri, sans-seriff" fill="#000" x="9" y="16" font-size="3">"Cutout" starts from the side of a cutout</text>
    <line x1="2.6" y1="4" x2="7" y2="4" stroke-width="1" stroke="fuchsia"/>
    <line x1="0" y1="15" x2="7" y2="15" stroke-width="1" stroke="#ccc"/>
  </g>
</svg>