<svg version="1.1" xmlns="http://www.w3.org/2000/svg" width="32.2125" height="17">
    <polygon points="24.69,6.2 24.69,2.97 31.34,2.97 31.34,6.2 32.21,6.2 32.21,9.0 31.34,9.0 31.34,15.27 29.66,15.27 29.66,16.47 26.36,16.47 26.36,15.27 24.69,15.27 24.69,10.8 23.11,10.8 23.11,15.5 9.11,15.5 9.11,10.8 7.52,10.8 7.52,15.27 5.85,15.27 5.85,16.47 2.55,16.47 2.55,15.27 0.88,15.27 0.88,9.0 0.0,9.0 0.0,6.2 0.88,6.2 0.88,2.97 7.52,2.97 7.52,6.2 9.11,6.2 9.11,1.5 23.11,1.5 23.11,6.2 24.69,6.2" fill="#fff" />
</svg>