<svg xmlns="http://www.w3.org/2000/svg" viewBox="0 0 16 16" xmlns:v="https://vecta.io/nano">
    <path d="M11.805 5.7a2.57 2.57 0 0 1-.128.85 2.49 2.49 0 0 1-.341.656c-.142.193-.303.366-.483.52l-.557.436-.56.403a3.83 3.83 0 0 0-.494.421 2.04 2.04 0 0 0-.359.491c-.093.178-.144.384-.154.619H6.773c.024-.415.114-.77.267-1.066s.341-.553.56-.773.454-.416.703-.59l.692-.531a2.76 2.76 0 0 0 .527-.59c.139-.212.209-.465.209-.758 0-.43-.14-.769-.421-1.018s-.68-.373-1.197-.373a2.02 2.02 0 0 0-.688.113 1.75 1.75 0 0 0-.553.319 1.68 1.68 0 0 0-.392.498c-.103.195-.168.41-.198.645l-2.087-.088c.059-.435.179-.842.363-1.223s.433-.713.751-.996.707-.508 1.168-.674.997-.249 1.608-.249c.586 0 1.108.068 1.567.205s.848.333 1.168.59.564.568.732.934a2.91 2.91 0 0 1 .253 1.23zm-5.09 7.515v-1.977h2.117v1.977z" fill="#fff"/><path d="M8 1.125C4.202 1.125 1.125 4.202 1.125 8S4.202 14.875 8 14.875 14.875 11.798 14.875 8 11.798 1.125 8 1.125zm.094 1.625c.586 0 1.104.082 1.563.219s.836.337 1.156.594.582.571.75.938.25.765.25 1.219c0 .322-.04.6-.125.844s-.202.463-.344.656-.319.377-.5.531l-.562.438-.531.406a3.81 3.81 0 0 0-.5.406 2.16 2.16 0 0 0-.375.5c-.093.178-.146.39-.156.625H6.782c.024-.415.096-.767.25-1.062s.343-.561.563-.781.47-.42.719-.594.475-.351.688-.531.392-.381.531-.594.188-.457.188-.75c0-.43-.126-.782-.406-1.031s-.67-.375-1.187-.375c-.249 0-.478.05-.687.125s-.404.176-.562.313-.304.305-.406.5-.158.422-.188.656l-2.094-.094c.059-.435.192-.838.375-1.219s.433-.717.75-1A3.49 3.49 0 0 1 6.469 3c.461-.166 1.015-.25 1.625-.25zm-1.375 8.5h2.125v2H6.719v-2z" fill="#0057ae"/>
</svg>